<svg xmlns="http://www.w3.org/2000/svg" style="display: none;">
    <symbol id="account" viewBox="0 0 512 512">
        <title>account</title>
        <path d="m512 256c0-141.488281-114.496094-256-256-256-141.488281 0-256 114.496094-256 256 0 140.234375 113.539062 256 256 256 141.875 0 256-115.121094 256-256zm-256-226c124.617188 0 226 101.382812 226 226 0 45.585938-13.558594 89.402344-38.703125 126.515625-100.96875-108.609375-273.441406-108.804687-374.59375 0-25.144531-37.113281-38.703125-80.929687-38.703125-126.515625 0-124.617188 101.382812-226 226-226zm-168.585938 376.5c89.773438-100.695312 247.421876-100.671875 337.167969 0-90.074219 100.773438-247.054687 100.804688-337.167969 0zm0 0"/>
        <path d="m256 271c49.625 0 90-40.375 90-90v-30c0-49.625-40.375-90-90-90s-90 40.375-90 90v30c0 49.625 40.375 90 90 90zm-60-120c0-33.085938 26.914062-60 60-60s60 26.914062 60 60v30c0 33.085938-26.914062 60-60 60s-60-26.914062-60-60zm0 0"/>
    </symbol>
    <symbol id="search" viewBox="0 0 511.999 511.999">
        <title>search</title>
        <path d="M508.874,478.708L360.142,329.976c28.21-34.827,45.191-79.103,45.191-127.309c0-111.75-90.917-202.667-202.667-202.667 S0,90.917,0,202.667s90.917,202.667,202.667,202.667c48.206,0,92.482-16.982,127.309-45.191l148.732,148.732 c4.167,4.165,10.919,4.165,15.086,0l15.081-15.082C513.04,489.627,513.04,482.873,508.874,478.708z M202.667,362.667 c-88.229,0-160-71.771-160-160s71.771-160,160-160s160,71.771,160,160S290.896,362.667,202.667,362.667z"/>
    </symbol>
    <symbol id="shopping-bag" viewBox="0 0 321.2 321.2">
        <title>shopping-bag</title>
        <path d="M306.4,313.2l-24-223.6c-0.4-3.6-3.6-6.4-7.2-6.4h-44.4V69.6c0-38.4-31.2-69.6-69.6-69.6c-38.4,0-69.6,31.2-69.6,69.6 v13.6H46c-3.6,0-6.8,2.8-7.2,6.4l-24,223.6c-0.4,2,0.4,4,1.6,5.6c1.2,1.6,3.2,2.4,5.2,2.4h278c2,0,4-0.8,5.2-2.4 C306,317.2,306.8,315.2,306.4,313.2z M223.6,123.6c3.6,0,6.4,2.8,6.4,6.4c0,3.6-2.8,6.4-6.4,6.4c-3.6,0-6.4-2.8-6.4-6.4 C217.2,126.4,220,123.6,223.6,123.6z M106,69.6c0-30.4,24.8-55.2,55.2-55.2c30.4,0,55.2,24.8,55.2,55.2v13.6H106V69.6z M98.8,123.6c3.6,0,6.4,2.8,6.4,6.4c0,3.6-2.8,6.4-6.4,6.4c-3.6,0-6.4-2.8-6.4-6.4C92.4,126.4,95.2,123.6,98.8,123.6z M30,306.4 L52.4,97.2h39.2v13.2c-8,2.8-13.6,10.4-13.6,19.2c0,11.2,9.2,20.4,20.4,20.4c11.2,0,20.4-9.2,20.4-20.4c0-8.8-5.6-16.4-13.6-19.2 V97.2h110.4v13.2c-8,2.8-13.6,10.4-13.6,19.2c0,11.2,9.2,20.4,20.4,20.4c11.2,0,20.4-9.2,20.4-20.4c0-8.8-5.6-16.4-13.6-19.2V97.2 H270l22.4,209.2H30z"/>
    </symbol>
</svg>