<?xml version="1.0" encoding="utf-8"?><svg xmlns="http://www.w3.org/2000/svg" xmlns:xlink="http://www.w3.org/1999/xlink"><symbol viewBox="0 0 512 512" id="icons-account"><path d="M512 256a256 256 0 10-512 0 256 256 0 00512 0zM256 30a226 226 0 01187 353 256 256 0 00-374 0A226 226 0 01256 30zM87 407a226 226 0 01338 0 226 226 0 01-338 0zm0 0"/><path d="M256 271c50 0 90-40 90-90v-30a90 90 0 00-180 0v30c0 50 40 90 90 90zm-60-120a60 60 0 01120 0v30a60 60 0 01-120 0zm0 0"/></symbol><symbol viewBox="0 0 491 491" id="icons-arrow-down"><path d="M487.536 216.467c-4.16-4.16-10.923-4.16-15.083 0L245.339 443.581 18.203 216.467c-4.16-4.16-10.923-4.16-15.083 0s-4.16 10.923 0 15.083l234.667 234.667c2.091 2.069 4.821 3.115 7.552 3.115s5.461-1.045 7.531-3.115L487.537 231.55c4.159-4.161 4.159-10.923-.001-15.083z"/><path d="M487.536 24.445c-4.16-4.16-10.923-4.16-15.083 0L245.339 251.581 18.203 24.467c-4.16-4.16-10.923-4.16-15.083 0s-4.16 10.923 0 15.083l234.667 234.667c2.091 2.069 4.821 3.115 7.552 3.115s5.461-1.045 7.531-3.136L487.536 39.528c4.16-4.16 4.16-10.923 0-15.083z"/></symbol><symbol viewBox="0 0 512 512" id="icons-search"><path d="M509 479L360 330a203 203 0 10-30 30l149 149c4 4 11 4 15 0l15-15c4-4 4-11 0-15zM203 363a160 160 0 110-321 160 160 0 010 321z"/></symbol><symbol viewBox="0 0 321 321" id="icons-shopping-bag"><path d="M306.4 313.2l-24-223.6a7.3 7.3 0 00-7.2-6.4h-44.4V69.6a69.7 69.7 0 00-139.2 0v13.6H46a7.3 7.3 0 00-7.2 6.4l-24 223.6c-.4 2 .4 4 1.6 5.6a6.4 6.4 0 005.2 2.4h278c2 0 4-.8 5.2-2.4 1.2-1.6 2-3.6 1.6-5.6zm-82.8-189.6c3.6 0 6.4 2.8 6.4 6.4 0 3.6-2.8 6.4-6.4 6.4a6.3 6.3 0 01-6.4-6.4c0-3.6 2.8-6.4 6.4-6.4zM106 69.6a55.3 55.3 0 01110.4 0v13.6H106V69.6zm-7.2 54c3.6 0 6.4 2.8 6.4 6.4 0 3.6-2.8 6.4-6.4 6.4a6.3 6.3 0 01-6.4-6.4c0-3.6 2.8-6.4 6.4-6.4zM30 306.4L52.4 97.2h39.2v13.2a20.3 20.3 0 006.8 39.6 20.3 20.3 0 006.8-39.6V97.2h110.4v13.2a20.3 20.3 0 006.8 39.6 20.3 20.3 0 006.8-39.6V97.2H270l22.4 209.2H30z"/></symbol></svg>