<svg xmlns="http://www.w3.org/2000/svg" viewBox="0 0 321.2 321.2"><path d="M306.4 313.2l-24-223.6a7.3 7.3 0 00-7.2-6.4h-44.4V69.6a69.7 69.7 0 00-139.2 0v13.6H46a7.3 7.3 0 00-7.2 6.4l-24 223.6c-.4 2 .4 4 1.6 5.6a6.4 6.4 0 005.2 2.4h278c2 0 4-.8 5.2-2.4 1.2-1.6 2-3.6 1.6-5.6zm-82.8-189.6c3.6 0 6.4 2.8 6.4 6.4 0 3.6-2.8 6.4-6.4 6.4a6.3 6.3 0 01-6.4-6.4c0-3.6 2.8-6.4 6.4-6.4zM106 69.6a55.3 55.3 0 01110.4 0v13.6H106V69.6zm-7.2 54c3.6 0 6.4 2.8 6.4 6.4 0 3.6-2.8 6.4-6.4 6.4a6.3 6.3 0 01-6.4-6.4c0-3.6 2.8-6.4 6.4-6.4zM30 306.4L52.4 97.2h39.2v13.2a20.3 20.3 0 006.8 39.6 20.3 20.3 0 006.8-39.6V97.2h110.4v13.2a20.3 20.3 0 006.8 39.6 20.3 20.3 0 006.8-39.6V97.2H270l22.4 209.2H30z"/></svg>